<?xml version="1.0" encoding="UTF-8" standalone="no"?>
<!DOCTYPE svg PUBLIC "-//W3C//DTD SVG 1.1//EN" "http://www.w3.org/Graphics/SVG/1.1/DTD/svg11.dtd">
<svg width="100%" height="100%" viewBox="0 0 1080 1080" version="1.1" xmlns="http://www.w3.org/2000/svg" xmlns:xlink="http://www.w3.org/1999/xlink" xml:space="preserve" xmlns:serif="http://www.serif.com/" style="fill-rule:evenodd;clip-rule:evenodd;stroke-linejoin:round;stroke-miterlimit:2;">
    <rect x="0" y="0" width="1080" height="1080" style="fill:white;"/>
    <g transform="matrix(1.676877,0,0,1.676877,-366.71904,-282.09498)">
        <g transform="matrix(314.110411,0,0,314.110411,330.343264,599.877984)">
            <path d="M0.083,-0L0.083,-0.543L0.249,-0.543L0.249,-0.447L0.233,-0.467L0.254,-0.467C0.277,-0.495 0.306,-0.519 0.34,-0.536C0.374,-0.553 0.413,-0.561 0.458,-0.561C0.516,-0.561 0.563,-0.544 0.597,-0.51C0.632,-0.476 0.649,-0.431 0.649,-0.374L0.649,-0L0.474,-0L0.474,-0.322C0.474,-0.354 0.467,-0.379 0.451,-0.396C0.436,-0.413 0.412,-0.421 0.38,-0.421C0.344,-0.421 0.315,-0.411 0.292,-0.39C0.269,-0.369 0.257,-0.342 0.257,-0.311L0.257,-0L0.083,-0Z" style="fill-rule:nonzero;"/>
        </g>
        <g transform="matrix(314.110411,0,0,314.110411,557.70738,599.877984)">
            <path d="M0.436,0.018C0.395,0.018 0.359,0.01 0.329,-0.006C0.298,-0.022 0.275,-0.04 0.26,-0.061L0.215,-0.061L0.255,-0.103L0.255,-0L0.083,-0L0.083,-0.749L0.257,-0.749L0.257,-0.468L0.262,-0.468C0.277,-0.492 0.3,-0.513 0.333,-0.532C0.365,-0.552 0.403,-0.561 0.447,-0.561C0.515,-0.561 0.575,-0.535 0.628,-0.482C0.68,-0.43 0.706,-0.359 0.706,-0.271C0.706,-0.184 0.679,-0.115 0.627,-0.061C0.574,-0.008 0.511,0.018 0.436,0.018ZM0.387,-0.126C0.432,-0.126 0.466,-0.139 0.489,-0.166C0.513,-0.193 0.524,-0.228 0.524,-0.271C0.524,-0.314 0.513,-0.349 0.489,-0.376C0.465,-0.403 0.432,-0.417 0.387,-0.417C0.345,-0.417 0.311,-0.403 0.287,-0.377C0.263,-0.35 0.251,-0.314 0.251,-0.27C0.251,-0.227 0.263,-0.192 0.286,-0.165C0.31,-0.139 0.344,-0.126 0.387,-0.126Z" style="fill-rule:nonzero;"/>
        </g>
        <g transform="matrix(314.110411,0,0,314.110411,792.086497,599.877984)">
        </g>
    </g>
</svg>
